<svg width="20" height="20" viewBox="0 0 20 20" fill="none" xmlns="http://www.w3.org/2000/svg">
<path d="M13.3333 7.08366H15C15 4.71949 12.7042 3.64116 10.8333 3.39283V1.66699H9.16667V3.39283C7.29583 3.64116 5 4.71949 5 7.08366C5 9.33866 7.22167 10.5112 9.16667 10.7753V14.917C7.96 14.7078 6.66667 14.0637 6.66667 12.917H5C5 15.0745 7.02083 16.3495 9.16667 16.6137V17.4995V18.3337H10.8333V17.4995V16.6087C12.7042 16.3603 15 15.2812 15 12.917C15 10.5528 12.7042 9.47449 10.8333 9.22616V5.08366C11.9417 5.28283 13.3333 5.86783 13.3333 7.08366ZM6.66667 7.08366C6.66667 5.86783 8.05833 5.28283 9.16667 5.08366V9.08283C8.02417 8.87199 6.66667 8.24783 6.66667 7.08366ZM13.3333 12.917C13.3333 14.1328 11.9417 14.7178 10.8333 14.917V10.917C11.9417 11.1162 13.3333 11.7012 13.3333 12.917Z" fill="black"/>
</svg>
