<svg width="182" height="26" viewBox="0 0 182 26" fill="none" xmlns="http://www.w3.org/2000/svg">
<path d="M0.890424 25V0.424487H11.683C14.4786 0.424487 16.621 1.19211 18.1105 2.72737C19.577 4.23971 20.3102 6.10722 20.3102 8.3299C20.3102 10.6671 19.577 12.5461 18.1105 13.9668C16.644 15.3875 14.639 16.0978 12.0955 16.0978H6.04613V25H0.890424ZM6.04613 4.75528V12.042H11.2018C12.485 12.042 13.4703 11.7212 14.1578 11.0796C14.8452 10.4151 15.1889 9.50998 15.1889 8.36427C15.1889 7.21856 14.8452 6.33636 14.1578 5.71767C13.4703 5.07608 12.5079 4.75528 11.2706 4.75528H6.04613ZM22.1222 25V0.424487H26.7968V25H22.1222ZM40.6326 25C40.4034 24.7021 40.2201 24.0491 40.0826 23.0408H40.0139C39.5098 23.797 38.8682 24.3813 38.0891 24.7938C37.31 25.2062 36.2216 25.4125 34.8238 25.4125C32.9678 25.4125 31.4783 24.9427 30.3555 24.0032C29.2327 23.0637 28.6713 21.7347 28.6713 20.0162C28.6713 18.2288 29.29 16.9227 30.5274 16.0978C31.7648 15.25 33.5062 14.6657 35.7518 14.3449C37.4017 14.1157 38.5245 13.8866 39.1202 13.6575C39.716 13.4054 40.0139 12.97 40.0139 12.3513C40.0139 11.7097 39.7618 11.2056 39.2577 10.839C38.7536 10.4495 38.0203 10.2547 37.0579 10.2547C34.9269 10.2547 33.7927 11.0796 33.6552 12.7294H29.4962C29.565 11.0567 30.241 9.67038 31.5242 8.5705C32.8074 7.47061 34.6634 6.92067 37.0923 6.92067C42.0418 6.92067 44.5165 9.08607 44.5165 13.4169V22.3878C44.5165 23.7168 44.7228 24.5303 45.1352 24.8281V25H40.6326ZM35.9581 22.1472C37.2413 22.1472 38.2495 21.8149 38.9827 21.1504C39.7389 20.4859 40.117 19.6954 40.117 18.7788V16.1322C39.6129 16.4301 38.5245 16.7738 36.8517 17.1633C35.5227 17.4612 34.5832 17.8049 34.0333 18.1945C33.4833 18.5611 33.2083 19.134 33.2083 19.913C33.2083 21.4025 34.1249 22.1472 35.9581 22.1472ZM45.7778 10.4609V7.3675H48.2182V1.86808H52.7895V7.3675H55.8142V10.4609H52.7895V19.8099C52.7895 20.9786 53.3739 21.5629 54.5425 21.5629L55.9173 21.5285V24.9656C55.207 25.0115 54.2331 25.0344 52.9958 25.0344C51.6438 25.0344 50.5096 24.7136 49.593 24.072C48.6764 23.4075 48.2182 22.319 48.2182 20.8067V10.4609H45.7778ZM69.1474 25C68.9182 24.7021 68.7349 24.0491 68.5974 23.0408H68.5287C68.0246 23.797 67.383 24.3813 66.6039 24.7938C65.8248 25.2062 64.7364 25.4125 63.3386 25.4125C61.4825 25.4125 59.9931 24.9427 58.8703 24.0032C57.7475 23.0637 57.1861 21.7347 57.1861 20.0162C57.1861 18.2288 57.8048 16.9227 59.0422 16.0978C60.2795 15.25 62.021 14.6657 64.2666 14.3449C65.9164 14.1157 67.0392 13.8866 67.635 13.6575C68.2308 13.4054 68.5287 12.97 68.5287 12.3513C68.5287 11.7097 68.2766 11.2056 67.7725 10.839C67.2684 10.4495 66.5351 10.2547 65.5727 10.2547C63.4417 10.2547 62.3075 11.0796 62.17 12.7294H58.011C58.0798 11.0567 58.7558 9.67038 60.0389 8.5705C61.3221 7.47061 63.1782 6.92067 65.6071 6.92067C70.5566 6.92067 73.0313 9.08607 73.0313 13.4169V22.3878C73.0313 23.7168 73.2375 24.5303 73.65 24.8281V25H69.1474ZM64.4729 22.1472C65.756 22.1472 66.7643 21.8149 67.4975 21.1504C68.2537 20.4859 68.6318 19.6954 68.6318 18.7788V16.1322C68.1277 16.4301 67.0392 16.7738 65.3665 17.1633C64.0375 17.4612 63.098 17.8049 62.5481 18.1945C61.9981 18.5611 61.7231 19.134 61.7231 19.913C61.7231 21.4025 62.6397 22.1472 64.4729 22.1472ZM81.4671 25V0.424487H92.4659C95.101 0.424487 97.0831 1.02026 98.4121 2.2118C99.7182 3.38042 100.371 4.91568 100.371 6.81756C100.371 9.22355 99.0881 10.8619 96.5217 11.7327V11.8358C97.8966 12.2482 98.9964 12.9929 99.8214 14.0699C100.669 15.1469 101.093 16.4301 101.093 17.9195C101.093 20.0964 100.371 21.8035 98.9277 23.0408C97.4383 24.3469 95.376 25 92.7409 25H81.4671ZM86.4509 14.0012V20.8754H92.1909C93.3825 20.8754 94.3219 20.5776 95.0094 19.9818C95.6968 19.3631 96.0405 18.5496 96.0405 17.5414C96.0405 16.4186 95.6624 15.5479 94.9063 14.9292C94.173 14.3105 93.2221 14.0012 92.0534 14.0012H86.4509ZM86.4509 10.3234H91.8472C92.9471 10.3234 93.8293 10.0714 94.4938 9.56726C95.1583 9.04024 95.4906 8.30698 95.4906 7.3675C95.4906 6.45093 95.1698 5.74059 94.5282 5.23647C93.9095 4.73236 93.0502 4.48031 91.9503 4.48031H86.4509V10.3234ZM118.287 22.869C116.569 24.6334 114.358 25.5156 111.654 25.5156C108.95 25.5156 106.739 24.6334 105.02 22.869C103.301 21.0817 102.442 18.859 102.442 16.2009C102.442 13.5429 103.301 11.3317 105.02 9.56726C106.739 7.77996 108.95 6.8863 111.654 6.8863C114.358 6.8863 116.569 7.77996 118.287 9.56726C120.006 11.3317 120.865 13.5429 120.865 16.2009C120.865 18.859 120.006 21.0817 118.287 22.869ZM111.654 21.941C113.051 21.941 114.14 21.4254 114.919 20.3942C115.721 19.3402 116.122 17.9424 116.122 16.2009C116.122 14.4595 115.721 13.0617 114.919 12.0076C114.14 10.9536 113.051 10.4265 111.654 10.4265C110.233 10.4265 109.133 10.9536 108.354 12.0076C107.575 13.0388 107.185 14.4365 107.185 16.2009C107.185 17.9424 107.575 19.3402 108.354 20.3942C109.133 21.4254 110.233 21.941 111.654 21.941ZM122.763 25V0.424487H127.438V25H122.763ZM130.172 25V7.3675H134.846V25H130.172ZM130.172 4.61779V0.424487H134.846V4.61779H130.172ZM142.189 25L136.071 7.3675H140.814L143.632 16.5103L144.423 19.3287H144.492C144.652 18.5726 144.904 17.6331 145.248 16.5103L148.135 7.3675H152.81L146.657 25H142.189ZM164.653 25C164.424 24.7021 164.24 24.0491 164.103 23.0408H164.034C163.53 23.797 162.888 24.3813 162.109 24.7938C161.33 25.2062 160.242 25.4125 158.844 25.4125C156.988 25.4125 155.498 24.9427 154.376 24.0032C153.253 23.0637 152.691 21.7347 152.691 20.0162C152.691 18.2288 153.31 16.9227 154.548 16.0978C155.785 15.25 157.526 14.6657 159.772 14.3449C161.422 14.1157 162.545 13.8866 163.14 13.6575C163.736 13.4054 164.034 12.97 164.034 12.3513C164.034 11.7097 163.782 11.2056 163.278 10.839C162.774 10.4495 162.04 10.2547 161.078 10.2547C158.947 10.2547 157.813 11.0796 157.675 12.7294H153.516C153.585 11.0567 154.261 9.67038 155.544 8.5705C156.827 7.47061 158.684 6.92067 161.112 6.92067C166.062 6.92067 168.537 9.08607 168.537 13.4169V22.3878C168.537 23.7168 168.743 24.5303 169.155 24.8281V25H164.653ZM159.978 22.1472C161.261 22.1472 162.27 21.8149 163.003 21.1504C163.759 20.4859 164.137 19.6954 164.137 18.7788V16.1322C163.633 16.4301 162.545 16.7738 160.872 17.1633C159.543 17.4612 158.603 17.8049 158.053 18.1945C157.503 18.5611 157.228 19.134 157.228 19.913C157.228 21.4025 158.145 22.1472 159.978 22.1472ZM175.667 7.3675V10.1859H175.77C176.32 9.15481 176.928 8.39864 177.592 7.91744C178.257 7.41333 179.093 7.16127 180.101 7.16127C180.582 7.16127 180.949 7.2071 181.201 7.29876V11.3889H181.098C179.517 11.2285 178.245 11.5723 177.283 12.4201C176.32 13.2679 175.839 14.5969 175.839 16.4072V25H171.165V7.3675H175.667Z" fill="#FDFDFD"/>
</svg>
