<svg width="24" height="24" viewBox="0 0 24 24" fill="none" xmlns="http://www.w3.org/2000/svg">
<path d="M11.6091 2C8.7954 2.00002 6.09694 2.93102 4.10735 4.58821C2.11777 6.24541 1.00002 8.49304 1 10.8367C1.00256 12.3611 1.47854 13.859 2.38166 15.1849C3.28479 16.5108 4.58435 17.6195 6.15404 18.4033C5.73597 19.3393 5.10896 20.2169 4.29896 21C5.86974 20.7243 7.34427 20.145 8.60777 19.3073C9.582 19.5484 10.5928 19.6717 11.6091 19.6733C14.4228 19.6733 17.1213 18.7423 19.1108 17.0851C21.1004 15.4279 22.2182 13.1803 22.2182 10.8367C22.2182 8.49304 21.1004 6.24541 19.1108 4.58821C17.1213 2.93102 14.4228 2.00002 11.6091 2Z" fill="url(#paint0_linear_1_350)"/>
<defs>
<linearGradient id="paint0_linear_1_350" x1="11.6091" y1="2" x2="11.6091" y2="49.5" gradientUnits="userSpaceOnUse">
<stop stop-color="#E4BC6D"/>
<stop offset="1" stop-color="#E4BC6D" stop-opacity="0.22"/>
</linearGradient>
</defs>
</svg>
