<svg width="20" height="20" viewBox="0 0 20 20" fill="none" xmlns="http://www.w3.org/2000/svg">
<path d="M6.66797 17.4999H8.33464V14.9999V13.3333V11.6666H12.0846C14.3821 11.6666 16.2513 9.79742 16.2513 7.49992C16.2513 5.20242 14.3821 3.33325 12.0846 3.33325H7.5013C7.04047 3.33325 6.66797 3.70659 6.66797 4.16659V9.99992V11.6666V13.3333V14.9999V17.4999ZM8.33464 4.99992H12.0846C13.463 4.99992 14.5846 6.12159 14.5846 7.49992C14.5846 8.87825 13.463 9.99992 12.0846 9.99992H8.33464V4.99992Z" fill="black"/>
<rect x="18" y="8" width="1" height="13" rx="0.5" transform="rotate(90 18 8)" fill="black"/>
<rect x="18" y="6" width="1" height="13" rx="0.5" transform="rotate(90 18 6)" fill="black"/>
</svg>
