<svg width="20" height="20" viewBox="0 0 20 20" fill="none" xmlns="http://www.w3.org/2000/svg">
<path d="M11.5246 7.70115V5.83832H15.7282V3H4.28164V5.83832H8.48576V7.69964C5.06903 7.85868 2.5 8.5444 2.5 9.36587C2.5 10.1873 5.07027 10.8731 8.48576 11.0331V17H11.5256V11.0326C14.9362 10.8731 17.5 10.1878 17.5 9.36712C17.5 8.5464 14.9362 7.86118 11.5256 7.70165M11.5256 10.5272V10.5257C11.4398 10.5312 10.9992 10.558 10.018 10.558C9.23361 10.558 8.68175 10.5355 8.48725 10.5252V10.5277C5.46866 10.3922 3.21547 9.8595 3.21547 9.22211C3.21547 8.58472 5.46891 8.05277 8.48725 7.91703V9.99699C8.68496 10.0108 9.25042 10.0446 10.0309 10.0446C10.9683 10.0446 11.4396 10.005 11.5261 9.99699V7.91703C14.5388 8.05302 16.7868 8.58623 16.7868 9.22136C16.7868 9.85649 14.5378 10.3899 11.5261 10.5259" fill="black"/>
</svg>
