<svg width="632" height="232" viewBox="0 0 632 232" fill="none" xmlns="http://www.w3.org/2000/svg">
<path d="M245.027 103.436V19H281.471C291.109 19 298.876 21.7341 304.77 27.2024C310.745 32.5902 313.732 39.3048 313.732 47.3464C313.732 55.3879 310.745 62.1428 304.77 67.611C298.876 72.9988 291.109 75.6927 281.471 75.6927H258.768V103.436H245.027ZM258.768 62.4242H281.471C287.286 62.4242 291.706 61.0974 294.733 58.4437C297.84 55.7096 299.393 52.0105 299.393 47.3464C299.393 42.6823 297.84 39.0234 294.733 36.3697C291.706 33.6356 287.286 32.2685 281.471 32.2685H258.768V62.4242Z" fill="#D6B166"/>
<path d="M324.462 103.436V19H337.008V91.9768H350.749V103.436H324.462Z" fill="#D6B166"/>
<path d="M363.658 95.8368C358.241 89.886 355.533 82.1662 355.533 72.6772C355.533 63.1882 358.241 55.5085 363.658 49.6382C369.154 43.6875 376.005 40.7121 384.21 40.7121C389.387 40.7121 394.127 42.24 398.428 45.2958C400.261 46.5824 401.894 48.0701 403.327 49.7588H403.925V41.9183H416.471V103.436H403.925V94.9924H403.327C402.133 96.6811 400.5 98.2894 398.428 99.8173C394.127 103.034 389.387 104.642 384.21 104.642C376.005 104.642 369.154 101.707 363.658 95.8368ZM373.456 57.4787C370.27 61.017 368.677 66.0831 368.677 72.6772C368.677 79.2712 370.27 84.3374 373.456 87.8756C376.642 91.4139 381.023 93.1831 386.599 93.1831C391.857 93.1831 396.039 91.4139 399.145 87.8756C402.332 84.257 403.925 79.1908 403.925 72.6772C403.925 66.1635 402.332 61.1376 399.145 57.5993C396.039 53.9806 391.857 52.1713 386.599 52.1713C381.023 52.1713 376.642 53.9404 373.456 57.4787Z" fill="#D6B166"/>
<path d="M425.983 53.3775V41.9183H433.152V28.6498H445.698V41.9183H464.218V53.3775H445.698V91.9768H464.816V103.436H433.152V53.3775H425.983Z" fill="#D6B166"/>
<path d="M480.11 95.8368C474.693 89.886 471.985 82.1662 471.985 72.6772C471.985 63.1882 474.693 55.5085 480.11 49.6382C485.606 43.6875 492.457 40.7121 500.662 40.7121C505.839 40.7121 510.579 42.24 514.88 45.2958C516.713 46.5824 518.346 48.0701 519.779 49.7588H520.377V41.9183H532.923V103.436H520.377V94.9924H519.779C518.585 96.6811 516.952 98.2894 514.88 99.8173C510.579 103.034 505.839 104.642 500.662 104.642C492.457 104.642 485.606 101.707 480.11 95.8368ZM489.908 57.4787C486.722 61.017 485.129 66.0831 485.129 72.6772C485.129 79.2712 486.722 84.3374 489.908 87.8756C493.094 91.4139 497.475 93.1831 503.051 93.1831C508.309 93.1831 512.491 91.4139 515.597 87.8756C518.784 84.257 520.377 79.1908 520.377 72.6772C520.377 66.1635 518.784 61.1376 515.597 57.5993C512.491 53.9806 508.309 52.1713 503.051 52.1713C497.475 52.1713 493.094 53.9404 489.908 57.4787Z" fill="#D6B166"/>
<path d="M245.027 211.771V127.335H286.25C294.136 127.335 300.389 129.426 305.009 133.608C309.629 137.709 311.939 142.855 311.939 149.047C311.939 155.239 309.828 159.984 305.607 163.281C303.854 164.648 301.783 165.733 299.393 166.538V167.141C302.341 167.784 304.93 168.87 307.16 170.398C312.338 174.177 314.927 179.927 314.927 187.647C314.927 194.804 312.378 200.634 307.279 205.137C302.181 209.56 294.972 211.771 285.653 211.771H245.027ZM258.768 161.713H285.653C289.476 161.713 292.423 160.748 294.494 158.818C296.566 156.888 297.601 154.194 297.601 150.736C297.601 147.68 296.566 145.228 294.494 143.378C292.423 141.529 289.476 140.604 285.653 140.604H258.768V161.713ZM258.768 198.503H285.055C295.411 198.503 300.588 194.482 300.588 186.44C300.588 178.399 295.411 174.378 285.055 174.378H258.768V198.503Z" fill="#D6B166"/>
<path d="M333.576 203.81C327.522 197.618 324.495 190.019 324.495 181.012C324.495 172.006 327.522 164.447 333.576 158.335C339.709 152.143 347.237 149.047 356.159 149.047C365.08 149.047 372.568 152.143 378.622 158.335C384.755 164.447 387.822 172.006 387.822 181.012C387.822 190.019 384.755 197.618 378.622 203.81C372.568 209.922 365.08 212.977 356.159 212.977C347.237 212.977 339.709 209.922 333.576 203.81ZM342.776 166.176C339.351 169.875 337.638 174.82 337.638 181.012C337.638 187.204 339.351 192.19 342.776 195.97C346.201 199.669 350.662 201.518 356.159 201.518C361.655 201.518 366.116 199.669 369.541 195.97C372.966 192.19 374.679 187.204 374.679 181.012C374.679 174.82 372.966 169.875 369.541 166.176C366.116 162.396 361.655 160.507 356.159 160.507C350.662 160.507 346.201 162.396 342.776 166.176Z" fill="#D6B166"/>
<path d="M398.557 211.771V127.335H411.103V200.312H424.844V211.771H398.557Z" fill="#D6B166"/>
<path d="M434.169 139.036C432.735 137.588 432.018 135.819 432.018 133.728C432.018 131.637 432.735 129.868 434.169 128.421C435.603 126.893 437.355 126.129 439.426 126.129C441.497 126.129 443.25 126.893 444.684 128.421C446.197 129.868 446.954 131.637 446.954 133.728C446.954 135.819 446.197 137.588 444.684 139.036C443.25 140.483 441.497 141.207 439.426 141.207C437.355 141.207 435.603 140.483 434.169 139.036ZM433.213 211.771V150.254H445.759V211.771H433.213Z" fill="#D6B166"/>
<path d="M454.076 150.254H467.22L480.363 200.312H488.13L501.273 150.254H514.417L497.689 211.771H470.804L454.076 150.254Z" fill="#D6B166"/>
<path d="M527.368 204.172C521.951 198.221 519.243 190.501 519.243 181.012C519.243 171.523 521.951 163.844 527.368 157.973C532.864 152.023 539.715 149.047 547.919 149.047C553.097 149.047 557.837 150.575 562.138 153.631C563.97 154.918 565.603 156.405 567.037 158.094H567.634V150.254H580.18V211.771H567.634V203.328H567.037C565.842 205.016 564.209 206.625 562.138 208.153C557.837 211.369 553.097 212.977 547.919 212.977C539.715 212.977 532.864 210.042 527.368 204.172ZM537.165 165.814C533.979 169.352 532.386 174.418 532.386 181.012C532.386 187.606 533.979 192.673 537.165 196.211C540.352 199.749 544.733 201.518 550.309 201.518C555.566 201.518 559.748 199.749 562.855 196.211C566.041 192.592 567.634 187.526 567.634 181.012C567.634 174.499 566.041 169.473 562.855 165.935C559.748 162.316 555.566 160.507 550.309 160.507C544.733 160.507 540.352 162.276 537.165 165.814Z" fill="#D6B166"/>
<path d="M594.472 211.771V150.254H607.018V159.3H607.615C608.492 157.612 609.766 156.003 611.439 154.475C615.103 151.259 619.405 149.65 624.344 149.65H631.513V161.713H623.746C618.887 161.713 614.864 163.281 611.678 166.417C608.571 169.473 607.018 173.534 607.018 178.6V211.771H594.472Z" fill="#D6B166"/>
<path d="M95.5571 167.971C95.3531 167.971 95.1463 167.926 94.9557 167.829C94.4912 167.598 94.2039 167.131 94.2039 166.613V157.229C89.6773 158.15 87.5267 158.419 78.8519 158.921C77.4718 159.001 76.0972 159.041 74.7252 159.041C60.7344 159.041 47.2376 154.893 34.5408 146.68C33.1715 145.794 31.7942 144.836 30.4464 143.832C27.7132 141.794 25.0579 139.525 22.5529 137.093C15.0809 129.833 9.39435 121.349 5.65165 111.874C1.90089 102.369 0 91.6002 0 79.862C0 68.1237 1.90089 57.3574 5.65433 47.8557C9.39704 38.3835 15.0836 29.8993 22.5529 22.6421C25.1975 20.07 27.7884 17.6107 30.4142 15.8118C40.0126 9.23387 50.5614 4.64544 61.7654 2.17804C71.2725 0.0811615 81.3032 -0.50414 91.5755 0.432879C109.102 2.03306 124.503 7.86996 133.07 12.7994C133.819 13.2316 134.576 13.7015 135.323 14.2009C135.75 14.4855 135.978 14.9795 135.919 15.4869C135.86 15.9944 135.527 16.4239 135.052 16.6038L102.514 28.8576C102.248 28.9596 101.961 28.9703 101.684 28.8978C96.7411 27.5232 91.2989 26.8251 85.5023 26.8251C69.4253 26.8251 56.5943 31.4861 47.3691 40.6817C38.2057 49.813 33.5582 62.9957 33.5582 79.8593C33.5582 96.723 38.2057 109.914 47.3691 119.04C56.7796 128.42 69.9247 133.205 85.3815 132.896C87.7764 132.848 90.7431 132.448 94.2039 131.704V120.073C94.2039 119.552 94.4912 119.088 94.9557 118.854C95.4175 118.623 95.9598 118.674 96.3706 118.986L127.147 142.253C127.488 142.508 127.684 142.903 127.687 143.332C127.687 143.762 127.494 144.159 127.15 144.42L96.3706 167.692C96.129 167.875 95.8444 167.966 95.5571 167.966V167.971ZM94.7543 155.202C95.0604 155.202 95.3611 155.307 95.6054 155.505C95.9249 155.763 96.1075 156.15 96.1075 156.561V165.512L125.429 143.343L96.1075 121.174V132.144C96.1075 132.778 95.6591 133.336 95.0416 133.473C91.2747 134.303 88.0395 134.751 85.4217 134.802C84.9331 134.813 84.4418 134.819 83.9558 134.819C68.6011 134.819 55.5123 129.846 46.0267 120.393C36.4927 110.896 31.6573 97.2599 31.6573 79.8647C31.6573 62.4694 36.4927 48.841 46.0267 39.3393C55.6224 29.7758 68.9044 24.9296 85.505 24.9296C91.4036 24.9296 96.9586 25.633 102.014 27.0211L133.376 15.2104C132.957 14.9473 132.538 14.6949 132.125 14.4533C114.008 4.02792 69.6589 -8.77353 31.4935 17.3851C28.9939 19.0981 26.4674 21.4983 23.8846 24.0114C16.6059 31.0806 11.0697 39.3393 7.42903 48.5591C3.76687 57.838 1.90894 68.3708 1.90894 79.8674C1.90894 91.364 3.76687 101.899 7.42903 111.178C11.0724 120.398 16.6086 128.659 23.8873 135.731C26.3332 138.107 28.9241 140.32 31.5902 142.309C32.903 143.289 34.2455 144.224 35.5799 145.085C49.1733 153.878 63.6985 157.895 78.7472 157.028C87.7066 156.51 89.5994 156.244 94.4832 155.237C94.5745 155.218 94.6657 155.207 94.757 155.207L94.7543 155.202ZM95.2242 120.508C95.2242 120.508 95.2242 120.508 95.2269 120.508H95.2242Z" fill="#D6B166"/>
<path d="M116.012 35.3281C115.746 35.3281 115.483 35.2502 115.258 35.0999C113.537 33.9373 111.714 32.8849 109.831 31.9693C109.346 31.7304 109.048 31.2283 109.072 30.686C109.096 30.1436 109.44 29.6684 109.944 29.4778L139.574 18.3195C140.042 18.1449 140.565 18.2389 140.938 18.5638C142.045 19.5277 144.211 21.638 145.092 22.4998C145.393 22.7924 145.535 23.2167 145.476 23.6328C145.417 24.049 145.162 24.4141 144.791 24.6101C144.746 24.6352 135.308 28.1801 116.477 35.2449C116.324 35.3012 116.165 35.3308 116.004 35.3308L116.012 35.3281ZM111.781 30.8175C113.263 31.5881 114.705 32.4419 116.085 33.3601C118.643 32.3989 138.613 24.9081 143.113 23.2193C142.179 22.3119 140.82 21.0043 139.94 20.215L111.781 30.8202V30.8175Z" fill="#D6B166"/>
<path d="M124.817 43.1062C124.439 43.1062 124.071 42.9451 123.805 42.6444C123.265 42.0268 122.707 41.4227 122.143 40.8455C121.598 40.2897 121.048 39.7554 120.503 39.2561C120.148 38.9285 119.995 38.456 120.086 37.9888C120.178 37.5243 120.495 37.1484 120.938 36.982L148.065 26.7634C148.602 26.5647 149.185 26.7124 149.558 27.1366C150.627 28.3689 151.642 29.6254 152.584 30.8766C152.839 31.2122 152.922 31.6606 152.804 32.0714C152.686 32.4821 152.377 32.8177 151.98 32.9681L151.816 33.0299L125.295 43.0176C125.139 43.0766 124.976 43.1062 124.817 43.1062ZM122.43 38.4533C122.787 38.7943 123.147 39.1513 123.504 39.5165C124.006 40.0293 124.503 40.5636 124.984 41.1032L150.627 31.4458C149.913 30.5195 149.158 29.5932 148.377 28.6804L122.43 38.4533ZM151.067 32.023C151.067 32.023 151.067 32.0257 151.07 32.0284C151.07 32.0284 151.07 32.0257 151.067 32.023Z" fill="#D6B166"/>
<path d="M130.829 51.9716C130.335 51.9716 129.865 51.6977 129.626 51.2333C128.95 49.923 128.201 48.637 127.401 47.41C127.175 47.0637 127.119 46.6368 127.248 46.2421C127.376 45.8501 127.669 45.5413 128.056 45.3937L154.491 35.4382C155.09 35.21 155.774 35.4409 156.115 35.9886C156.95 37.323 157.737 38.6734 158.454 40.0051C158.639 40.3488 158.669 40.7569 158.532 41.1247C158.395 41.4926 158.107 41.7825 157.742 41.9221L157.093 42.1718L157.087 42.1665L131.302 51.8803C131.146 51.9394 130.985 51.9689 130.827 51.9689L130.829 51.9716ZM131.315 50.3607C131.315 50.3607 131.315 50.3607 131.315 50.3634C131.315 50.3634 131.315 50.3634 131.315 50.3607ZM129.358 46.9375C129.97 47.9067 130.55 48.9109 131.09 49.9284L156.48 40.3622C155.933 39.3715 155.35 38.3701 154.735 37.3767L129.355 46.9348L129.358 46.9375ZM155.162 37.2183H155.16C155.16 37.2183 155.159 37.2183 155.162 37.2183Z" fill="#D6B166"/>
<path d="M134.556 61.3928C134.349 61.3928 134.142 61.3445 133.952 61.2505C133.613 61.0814 133.358 60.7753 133.254 60.4101C132.87 59.0811 132.435 57.7655 131.962 56.5037C131.833 56.168 131.844 55.7975 131.994 55.4646C132.145 55.1344 132.413 54.882 132.752 54.7531L159.38 44.7251C160.062 44.4728 160.817 44.7949 161.101 45.4608C161.421 46.2018 162.47 48.8518 162.691 49.4559L162.707 49.5042C162.819 49.8774 162.782 50.2587 162.605 50.5782C162.368 50.9997 161.976 51.1715 161.788 51.2333L135.028 61.3069C134.878 61.3633 134.717 61.3928 134.556 61.3928ZM134.36 59.5268C134.36 59.5268 134.357 59.5268 134.354 59.5268H134.36ZM133.933 56.3452C134.285 57.3172 134.615 58.3106 134.916 59.3174L160.712 49.6062C160.414 48.833 159.882 47.4959 159.555 46.6958L133.933 56.3452ZM133.745 55.8324C133.745 55.8324 133.745 55.8351 133.745 55.8378C133.745 55.8378 133.745 55.8351 133.745 55.8324ZM159.353 46.2126C159.353 46.2126 159.353 46.2126 159.353 46.2152C159.353 46.2152 159.353 46.2152 159.353 46.2126Z" fill="#D6B166"/>
<path d="M159.756 116.637L158.045 115.802C158.102 115.686 158.188 115.52 158.3 115.308C164.494 103.585 165.77 89.3852 165.748 79.5371C165.732 71.6409 164.862 64.1931 163.16 57.4031C163.128 57.2769 163.045 57.2151 162.999 57.191C162.948 57.1641 162.865 57.1373 162.763 57.1695L136.733 66.0537C136.588 66.1047 136.499 66.2551 136.523 66.4162C137.095 69.9629 138.218 79.2525 136.311 88.8885L134.445 88.518C136.29 79.1854 135.2 70.1643 134.644 66.7169C134.469 65.6376 135.09 64.6012 136.115 64.2522L162.145 55.368C162.725 55.1693 163.364 55.2257 163.904 55.5183C164.449 55.8163 164.849 56.3345 165.002 56.9413C166.739 63.8817 167.63 71.4825 167.646 79.5344C167.668 89.6 166.355 104.131 159.978 116.196C159.879 116.387 159.801 116.532 159.75 116.637H159.756Z" fill="#D6B166"/>
<path d="M85.4936 231.995C82.3819 231.995 79.2406 231.85 76.0751 231.562C58.5483 229.962 43.1479 224.125 34.5805 219.196C33.8341 218.764 33.0743 218.294 32.3279 217.794C31.901 217.51 31.6728 217.016 31.7319 216.508C31.7909 216.001 32.1239 215.571 32.5991 215.391L65.137 203.138C65.4028 203.038 65.6901 203.025 65.9666 203.097C70.9094 204.472 76.3517 205.17 82.1483 205.17C98.2253 205.17 111.056 200.509 120.281 191.314C129.445 182.182 134.092 169 134.092 152.136C134.092 135.272 129.445 122.082 120.281 112.956C110.871 103.575 97.7286 98.7876 82.2691 99.0991C79.8742 99.1474 76.9074 99.5474 73.4466 100.291V111.922C73.4466 112.443 73.1594 112.907 72.6949 113.141C72.2331 113.369 71.6907 113.321 71.28 113.009L40.5033 89.7423C40.1623 89.4872 39.9664 89.0926 39.9637 88.663C39.9637 88.2334 40.157 87.836 40.5006 87.5756L71.28 64.3032C71.6907 63.9917 72.2331 63.9407 72.6949 64.1716C73.1594 64.4025 73.4466 64.8697 73.4466 65.3879V74.7715C77.9733 73.8506 80.1239 73.5821 88.7987 73.08C104.264 72.1886 119.167 76.3045 133.11 85.323C134.479 86.209 135.856 87.1675 137.204 88.1716C139.937 90.2095 142.593 92.4782 145.098 94.9107C152.57 102.171 158.256 110.655 161.999 120.13C165.75 129.631 167.651 140.403 167.651 152.139C167.651 163.874 165.75 174.643 161.999 184.145C158.256 193.617 152.572 202.101 145.1 209.359C142.456 211.931 139.865 214.39 137.239 216.189C127.641 222.767 117.092 227.355 105.888 229.823C99.31 231.272 92.4797 232 85.4936 232V231.995ZM34.2798 216.79C34.6986 217.053 35.1175 217.306 35.5309 217.547C53.6484 227.973 97.9971 240.774 136.162 214.615C138.662 212.903 141.189 210.502 143.771 207.989C151.05 200.92 156.586 192.661 160.227 183.441C163.889 174.163 165.747 163.63 165.747 152.133C165.747 140.637 163.889 130.101 160.227 120.822C156.584 111.602 151.047 103.341 143.769 96.2692C141.325 93.8931 138.732 91.6808 136.066 89.6913C134.753 88.7113 133.41 87.7797 132.076 86.9151C118.483 78.1222 103.957 74.1056 88.9088 74.9728C79.9494 75.491 78.0566 75.7568 73.1728 76.7637C72.7754 76.8469 72.3646 76.7475 72.0478 76.4898C71.7283 76.2321 71.5458 75.8454 71.5458 75.4346V66.4833L42.2243 88.6522L71.5458 110.821V99.8508C71.5458 99.2172 71.9941 98.6587 72.6117 98.5218C76.3785 97.6922 79.6138 97.2438 82.2315 97.1928C98.2199 96.8706 111.84 101.851 121.627 111.605C131.161 121.102 135.996 134.738 135.996 152.133C135.996 169.528 131.161 183.157 121.627 192.659C112.031 202.222 98.7488 207.068 82.1483 207.068C76.2496 207.068 70.6947 206.365 65.6391 204.977L34.2771 216.788L34.2798 216.79Z" fill="#D6B166"/>
<path d="M27.5946 213.764C27.2724 213.764 26.9583 213.649 26.7086 213.431C25.6024 212.468 23.4358 210.357 22.5551 209.495C22.2571 209.203 22.1121 208.781 22.1712 208.368C22.2276 207.954 22.4799 207.589 22.8451 207.39C22.8916 207.364 32.3334 203.817 51.1704 196.75C51.5759 196.597 52.035 196.651 52.3974 196.895C54.1157 198.058 55.9414 199.11 57.8235 200.026C58.3095 200.265 58.6075 200.767 58.5834 201.309C58.5592 201.852 58.2155 202.327 57.7108 202.517L28.0806 213.676C27.9249 213.735 27.7638 213.762 27.6027 213.762L27.5946 213.764ZM24.5392 208.776C25.4736 209.683 26.8294 210.991 27.7101 211.78L55.869 201.175C54.3869 200.404 52.9451 199.551 51.5651 198.632C49.0064 199.594 29.0418 207.082 24.5366 208.776H24.5392Z" fill="#D6B166"/>
<path d="M19.1047 205.318C18.7234 205.318 18.3556 205.157 18.0898 204.856C17.0212 203.624 16.0063 202.367 15.0639 201.116C14.8089 200.78 14.7256 200.332 14.8438 199.921C14.9619 199.51 15.2707 199.175 15.668 199.024L15.8318 198.963L42.3529 188.975C42.8818 188.776 43.4671 188.924 43.843 189.348C44.3854 189.968 44.9438 190.572 45.5049 191.147C46.05 191.703 46.6031 192.24 47.1454 192.736C47.4971 193.064 47.6528 193.537 47.5616 194.004C47.4703 194.468 47.1535 194.844 46.7105 195.011L19.5826 205.229C19.4241 205.288 19.2631 205.315 19.102 205.315L19.1047 205.318ZM17.0266 200.549C17.7407 201.478 18.4952 202.402 19.2765 203.315L45.223 193.542C44.8659 193.201 44.5062 192.844 44.1491 192.481C43.6497 191.969 43.153 191.437 42.6697 190.892L17.0266 200.549ZM16.5836 199.967C16.5836 199.967 16.5836 199.97 16.5862 199.972C16.5862 199.972 16.5862 199.97 16.5836 199.967Z" fill="#D6B166"/>
<path d="M12.6886 196.643C12.2322 196.643 11.7918 196.409 11.5368 196.004C10.7045 194.672 9.91511 193.322 9.19826 191.987C9.013 191.644 8.98347 191.236 9.12039 190.868C9.25732 190.5 9.5446 190.21 9.90975 190.07L10.538 189.829L10.5434 189.834L36.3503 180.112C36.992 179.868 37.7142 180.147 38.0284 180.762C38.7049 182.072 39.454 183.358 40.2514 184.585C40.477 184.932 40.5333 185.358 40.4045 185.75C40.2756 186.142 39.9829 186.451 39.5963 186.599L13.1611 196.554C13.0054 196.613 12.8443 196.64 12.6859 196.64L12.6886 196.643ZM12.4926 194.774C12.4926 194.774 12.4926 194.774 12.4899 194.774H12.4926ZM11.1689 191.63C11.7167 192.624 12.302 193.623 12.9141 194.616L38.2942 185.058C37.682 184.089 37.1021 183.084 36.5624 182.067L11.1716 191.633L11.1689 191.63Z" fill="#D6B166"/>
<path d="M7.79757 187.356C7.26865 187.356 6.77195 187.047 6.55447 186.534C6.24571 185.818 5.24157 183.264 4.99188 182.612C4.86032 182.266 4.87106 181.895 5.02141 181.567C5.26842 181.036 5.80271 180.783 6.10073 180.679C6.29673 180.606 32.2406 170.836 32.6245 170.691C32.9736 170.557 33.3682 170.578 33.7038 170.745C34.0421 170.914 34.2972 171.22 34.4019 171.585C34.7859 172.917 35.2208 174.232 35.6933 175.492C35.8222 175.827 35.8115 176.198 35.6611 176.531C35.5108 176.861 35.2423 177.113 34.904 177.239L8.27547 187.27C8.11707 187.329 7.95597 187.356 7.79757 187.356ZM8.30232 185.78C8.30232 185.78 8.30232 185.78 8.30232 185.783C8.30232 185.783 8.30232 185.783 8.30232 185.78ZM6.94915 182.392C7.26059 183.189 7.78414 184.515 8.10364 185.302L33.7253 175.653C33.3736 174.683 33.0434 173.687 32.7427 172.681C11.9564 180.507 7.7922 182.075 6.94915 182.392ZM33.9133 176.16C33.9133 176.16 33.9133 176.163 33.9133 176.166C33.9133 176.166 33.9133 176.163 33.9133 176.16Z" fill="#D6B166"/>
<path d="M4.79275 176.743C4.4276 176.743 4.06515 176.654 3.74028 176.477C3.19525 176.179 2.7952 175.661 2.64217 175.054C0.907743 168.114 0.0163666 160.513 0.000257391 152.461C-0.0212215 142.395 1.29168 127.865 7.66824 115.799C7.76758 115.608 7.84544 115.463 7.89645 115.359L9.60671 116.194C9.55033 116.309 9.46442 116.476 9.35165 116.688C3.15766 128.41 1.88235 142.61 1.90383 152.458C1.91994 160.354 2.78983 167.802 4.49204 174.592C4.52426 174.718 4.60749 174.78 4.65313 174.804C4.70415 174.834 4.78738 174.858 4.8894 174.826L30.9192 165.942C31.0642 165.89 31.1528 165.74 31.1259 165.579C30.554 162.032 29.4318 152.743 31.3353 143.107L33.2013 143.477C31.3568 152.81 32.4469 161.831 33.0026 165.278C33.1772 166.358 32.557 167.394 31.5313 167.743L5.50155 176.627C5.27065 176.705 5.0317 176.745 4.79275 176.745V176.743Z" fill="#D6B166"/>
</svg>
