<svg width="532" height="196" viewBox="0 0 532 196" fill="none" xmlns="http://www.w3.org/2000/svg">
<path d="M206.344 87.4462V16.5177H236.957C245.054 16.5177 251.578 18.8144 256.529 23.4079C261.548 27.9338 264.057 33.5743 264.057 40.3294C264.057 47.0845 261.548 52.7588 256.529 57.3522C251.578 61.8782 245.054 64.1411 236.957 64.1411H217.886V87.4462H206.344ZM217.886 52.9952H236.957C241.842 52.9952 245.555 51.8806 248.098 49.6514C250.708 47.3547 252.013 44.2474 252.013 40.3294C252.013 36.4115 250.708 33.3379 248.098 31.1087C245.555 28.812 241.842 27.6636 236.957 27.6636H217.886V52.9952Z" fill="white"/>
<path d="M273.071 87.4462V16.5177H283.61V77.8202H295.153V87.4462H273.071Z" fill="white"/>
<path d="M305.997 81.0626C301.447 76.0639 299.172 69.579 299.172 61.608C299.172 53.6369 301.447 47.1858 305.997 42.2546C310.614 37.2558 316.368 34.7565 323.261 34.7565C327.61 34.7565 331.591 36.0399 335.205 38.6069C336.744 39.6877 338.116 40.9374 339.32 42.3559H339.822V35.7697H350.361V87.4462H339.822V80.3533H339.32C338.316 81.7719 336.945 83.1229 335.205 84.4064C331.591 87.1084 327.61 88.4595 323.261 88.4595C316.368 88.4595 310.614 85.9938 305.997 81.0626ZM314.227 48.8408C311.551 51.8131 310.212 56.0688 310.212 61.608C310.212 67.1471 311.551 71.4028 314.227 74.3751C316.904 77.3473 320.584 78.8335 325.268 78.8335C329.684 78.8335 333.197 77.3473 335.807 74.3751C338.484 71.3353 339.822 67.0796 339.822 61.608C339.822 56.1363 338.484 51.9144 335.807 48.9422C333.197 45.9024 329.684 44.3825 325.268 44.3825C320.584 44.3825 316.904 45.8686 314.227 48.8408Z" fill="white"/>
<path d="M358.351 45.3957V35.7697H364.374V24.6238H374.913V35.7697H390.47V45.3957H374.913V77.8202H390.972V87.4462H364.374V45.3957H358.351Z" fill="white"/>
<path d="M403.82 81.0626C399.269 76.0639 396.994 69.579 396.994 61.608C396.994 53.6369 399.269 47.1858 403.82 42.2546C408.437 37.2558 414.191 34.7565 421.083 34.7565C425.433 34.7565 429.414 36.0399 433.028 38.6069C434.567 39.6877 435.938 40.9374 437.143 42.3559H437.645V35.7697H448.184V87.4462H437.645V80.3533H437.143C436.139 81.7719 434.767 83.1229 433.028 84.4064C429.414 87.1084 425.433 88.4595 421.083 88.4595C414.191 88.4595 408.437 85.9938 403.82 81.0626ZM412.05 48.8408C409.373 51.8131 408.035 56.0688 408.035 61.608C408.035 67.1471 409.373 71.4028 412.05 74.3751C414.727 77.3473 418.407 78.8335 423.091 78.8335C427.507 78.8335 431.02 77.3473 433.63 74.3751C436.306 71.3353 437.645 67.0796 437.645 61.608C437.645 56.1363 436.306 51.9144 433.63 48.9422C431.02 45.9024 427.507 44.3825 423.091 44.3825C418.407 44.3825 414.727 45.8686 412.05 48.8408Z" fill="white"/>
<path d="M206.344 178.451V107.522H240.972C247.596 107.522 252.849 109.279 256.73 112.791C260.611 116.236 262.552 120.56 262.552 125.761C262.552 130.962 260.778 134.948 257.232 137.717C255.76 138.866 254.02 139.778 252.013 140.453V140.96C254.489 141.5 256.663 142.412 258.537 143.696C262.886 146.871 265.061 151.701 265.061 158.185C265.061 164.197 262.92 169.095 258.637 172.878C254.355 176.593 248.299 178.451 240.47 178.451H206.344ZM217.886 136.4H240.47C243.682 136.4 246.158 135.59 247.897 133.968C249.637 132.347 250.507 130.084 250.507 127.179C250.507 124.613 249.637 122.552 247.897 120.999C246.158 119.445 243.682 118.668 240.47 118.668H217.886V136.4ZM217.886 167.305H239.968C248.667 167.305 253.016 163.927 253.016 157.172C253.016 150.417 248.667 147.039 239.968 147.039H217.886V167.305Z" fill="white"/>
<path d="M280.727 171.763C275.641 166.562 273.099 160.178 273.099 152.612C273.099 145.047 275.641 138.697 280.727 133.563C285.879 128.362 292.203 125.761 299.697 125.761C307.191 125.761 313.481 128.362 318.567 133.563C323.719 138.697 326.295 145.047 326.295 152.612C326.295 160.178 323.719 166.562 318.567 171.763C313.481 176.897 307.191 179.464 299.697 179.464C292.203 179.464 285.879 176.897 280.727 171.763ZM288.455 140.149C285.578 143.257 284.139 147.411 284.139 152.612C284.139 157.814 285.578 162.002 288.455 165.177C291.333 168.284 295.08 169.838 299.697 169.838C304.314 169.838 308.061 168.284 310.938 165.177C313.816 162.002 315.254 157.814 315.254 152.612C315.254 147.411 313.816 143.257 310.938 140.149C308.061 136.974 304.314 135.387 299.697 135.387C295.08 135.387 291.333 136.974 288.455 140.149Z" fill="white"/>
<path d="M335.313 178.451V107.522H345.852V168.825H357.395V178.451H335.313Z" fill="white"/>
<path d="M365.228 117.351C364.023 116.135 363.421 114.649 363.421 112.892C363.421 111.136 364.023 109.65 365.228 108.434C366.432 107.151 367.904 106.509 369.644 106.509C371.384 106.509 372.856 107.151 374.06 108.434C375.332 109.65 375.967 111.136 375.967 112.892C375.967 114.649 375.332 116.135 374.06 117.351C372.856 118.567 371.384 119.175 369.644 119.175C367.904 119.175 366.432 118.567 365.228 117.351ZM364.425 178.451V126.774H374.964V178.451H364.425Z" fill="white"/>
<path d="M381.95 126.774H392.991L404.032 168.825H410.556L421.597 126.774H432.638L418.586 178.451H396.002L381.95 126.774Z" fill="white"/>
<path d="M443.517 172.067C438.967 167.068 436.692 160.583 436.692 152.612C436.692 144.641 438.967 138.19 443.517 133.259C448.134 128.26 453.889 125.761 460.781 125.761C465.13 125.761 469.112 127.044 472.725 129.611C474.264 130.692 475.636 131.942 476.84 133.36H477.342V126.774H487.881V178.451H477.342V171.358H476.84C475.837 172.776 474.465 174.127 472.725 175.411C469.112 178.113 465.13 179.464 460.781 179.464C453.889 179.464 448.134 176.998 443.517 172.067ZM451.748 139.845C449.071 142.818 447.733 147.073 447.733 152.612C447.733 158.152 449.071 162.407 451.748 165.38C454.424 168.352 458.104 169.838 462.788 169.838C467.205 169.838 470.718 168.352 473.327 165.38C476.004 162.34 477.342 158.084 477.342 152.612C477.342 147.141 476.004 142.919 473.327 139.947C470.718 136.907 467.205 135.387 462.788 135.387C458.104 135.387 454.424 136.873 451.748 139.845Z" fill="white"/>
<path d="M499.887 178.451V126.774H510.426V134.374H510.927C511.664 132.955 512.734 131.604 514.139 130.321C517.217 127.619 520.831 126.268 524.979 126.268H531.002V136.4H524.478C520.396 136.4 517.017 137.717 514.34 140.352C511.73 142.919 510.426 146.33 510.426 150.586V178.451H499.887Z" fill="white"/>
<path d="M80.7862 141.657C80.6147 141.657 80.4411 141.619 80.281 141.538C79.8908 141.344 79.6495 140.951 79.6495 140.516V132.634C75.8469 133.407 74.0404 133.633 66.7533 134.054C65.594 134.122 64.4393 134.156 63.2868 134.156C51.5341 134.156 40.1964 130.671 29.5308 123.772C28.3806 123.028 27.2236 122.223 26.0914 121.379C23.7955 119.668 21.5649 117.762 19.4607 115.718C13.184 109.62 8.40713 102.493 5.26316 94.5338C2.11242 86.5498 0.515625 77.5035 0.515625 67.6431C0.515625 57.7827 2.11242 48.7387 5.26541 40.7569C8.40939 32.8 13.1862 25.6731 19.4607 19.5769C21.6822 17.4162 23.8586 15.3503 26.0643 13.8392C34.1273 8.31359 42.9886 4.45918 52.4002 2.3865C60.3864 0.625063 68.8124 0.133394 77.4415 0.920515C92.1644 2.26471 105.101 7.16786 112.298 11.3087C112.927 11.6718 113.563 12.0665 114.19 12.486C114.549 12.7251 114.741 13.1401 114.691 13.5663C114.641 13.9926 114.362 14.3534 113.963 14.5045L86.6298 24.798C86.4065 24.8837 86.1652 24.8927 85.9329 24.8318C81.7808 23.6771 77.2092 23.0907 72.3398 23.0907C58.8347 23.0907 48.0564 27.006 40.3069 34.7306C32.6094 42.4011 28.7054 53.4749 28.7054 67.6408C28.7054 81.8068 32.6094 92.8873 40.3069 100.553C48.212 108.434 59.2542 112.453 72.2383 112.193C74.2501 112.153 76.7423 111.817 79.6495 111.192V101.422C79.6495 100.984 79.8908 100.594 80.281 100.398C80.6689 100.204 81.1245 100.247 81.4695 100.508L107.323 120.053C107.609 120.267 107.774 120.599 107.776 120.96C107.776 121.321 107.614 121.654 107.325 121.873L81.4695 141.423C81.2665 141.576 81.0275 141.653 80.7862 141.653V141.657ZM80.1118 130.931C80.3689 130.931 80.6215 131.019 80.8268 131.186C81.0951 131.402 81.2485 131.727 81.2485 132.072V139.591L105.879 120.969L81.2485 102.346V111.562C81.2485 112.094 80.8719 112.563 80.3531 112.678C77.1889 113.375 74.4711 113.752 72.2722 113.795C71.8617 113.804 71.449 113.808 71.0407 113.808C58.1423 113.808 47.1475 109.631 39.1793 101.69C31.1705 93.7128 27.1086 82.2578 27.1086 67.6453C27.1086 53.0329 31.1705 41.5847 39.1793 33.6029C47.2399 25.5693 58.3972 21.4984 72.3421 21.4984C77.2971 21.4984 81.9634 22.0893 86.2103 23.2553L112.555 13.334C112.203 13.113 111.851 12.901 111.504 12.698C96.285 3.94044 59.0309 -6.81312 26.971 15.1609C24.8713 16.5998 22.749 18.6161 20.5793 20.7271C14.465 26.6655 9.81448 33.6029 6.75621 41.3478C3.6799 49.1424 2.11919 57.9902 2.11919 67.6476C2.11919 77.3051 3.6799 86.1551 6.75621 93.9496C9.81673 101.695 14.4673 108.634 20.5816 114.575C22.6362 116.571 24.8126 118.429 27.0522 120.101C28.1551 120.924 29.2827 121.709 30.4037 122.433C41.8226 129.819 54.024 133.193 66.6653 132.464C74.1915 132.029 75.7815 131.806 79.884 130.96C79.9607 130.944 80.0374 130.935 80.1141 130.935L80.1118 130.931ZM80.5065 101.787C80.5065 101.787 80.5065 101.787 80.5087 101.787H80.5065Z" fill="white"/>
<path d="M97.968 30.2335C97.7447 30.2335 97.5237 30.1681 97.3342 30.0418C95.8885 29.0652 94.3571 28.1811 92.7761 27.412C92.3679 27.2113 92.1176 26.7895 92.1379 26.3339C92.1582 25.8784 92.4469 25.4792 92.8709 25.319L117.761 15.9458C118.153 15.7992 118.593 15.8781 118.907 16.151C119.836 16.9607 121.656 18.7334 122.396 19.4574C122.648 19.7032 122.768 20.0595 122.718 20.4091C122.669 20.7587 122.454 21.0654 122.143 21.2301C122.106 21.2511 114.177 24.2289 98.3581 30.1636C98.2296 30.2109 98.0965 30.2357 97.9612 30.2357L97.968 30.2335ZM94.4135 26.4445C95.6585 27.0917 96.8696 27.809 98.0289 28.5803C100.178 27.7729 116.954 21.4804 120.734 20.0618C119.949 19.2995 118.807 18.2011 118.068 17.538L94.4135 26.4467V26.4445Z" fill="white"/>
<path d="M105.367 36.7672C105.049 36.7672 104.74 36.6319 104.516 36.3793C104.063 35.8606 103.594 35.3531 103.12 34.8682C102.663 34.4013 102.2 33.9525 101.742 33.533C101.445 33.2579 101.316 32.8609 101.393 32.4685C101.47 32.0783 101.736 31.7626 102.108 31.6227L124.896 23.0388C125.347 22.8719 125.836 22.996 126.15 23.3523C127.048 24.3875 127.9 25.443 128.692 26.494C128.906 26.776 128.976 27.1526 128.877 27.4977C128.777 27.8427 128.518 28.1247 128.184 28.251L128.047 28.3028L105.768 36.6928C105.637 36.7424 105.5 36.7672 105.367 36.7672ZM103.362 32.8587C103.662 33.1451 103.964 33.4451 104.264 33.7518C104.686 34.1826 105.103 34.6314 105.507 35.0847L127.048 26.9722C126.448 26.1941 125.814 25.416 125.158 24.6492L103.362 32.8587ZM127.417 27.4571C127.417 27.4571 127.417 27.4593 127.42 27.4616C127.42 27.4616 127.42 27.4593 127.417 27.4571Z" fill="white"/>
<path d="M110.415 44.2145C110 44.2145 109.606 43.9844 109.405 43.5943C108.837 42.4937 108.207 41.4133 107.535 40.3826C107.346 40.0917 107.298 39.7331 107.407 39.4016C107.515 39.0723 107.761 38.8129 108.086 38.6889L130.292 30.326C130.795 30.1343 131.37 30.3282 131.656 30.7883C132.358 31.9092 133.019 33.0437 133.621 34.1623C133.776 34.451 133.801 34.7939 133.686 35.1028C133.571 35.4118 133.33 35.6554 133.023 35.7727L132.477 35.9824L132.473 35.9779L110.812 44.1378C110.681 44.1874 110.546 44.2122 110.413 44.2122L110.415 44.2145ZM110.824 42.8613C110.824 42.8613 110.824 42.8613 110.824 42.8635C110.824 42.8635 110.824 42.8635 110.824 42.8613ZM109.179 39.9857C109.694 40.7999 110.181 41.6434 110.634 42.4982L131.963 34.4623C131.503 33.6301 131.014 32.7888 130.497 31.9544L109.177 39.9834L109.179 39.9857ZM130.856 31.8213H130.853C130.853 31.8213 130.853 31.8213 130.856 31.8213Z" fill="white"/>
<path d="M113.547 52.1285C113.373 52.1285 113.199 52.0879 113.039 52.009C112.755 51.8669 112.541 51.6098 112.453 51.303C112.13 50.1866 111.765 49.0815 111.368 48.0215C111.26 47.7396 111.269 47.4283 111.395 47.1487C111.521 46.8713 111.747 46.6592 112.031 46.551L134.4 38.1272C134.973 37.9152 135.606 38.1859 135.845 38.7452C136.114 39.3677 136.996 41.5937 137.181 42.1012L137.194 42.1418C137.289 42.4553 137.257 42.7755 137.108 43.0439C136.91 43.398 136.581 43.5423 136.423 43.5942L113.944 52.0563C113.817 52.1037 113.682 52.1285 113.547 52.1285ZM113.382 50.561C113.382 50.561 113.38 50.561 113.377 50.561H113.382ZM113.023 47.8884C113.319 48.7049 113.596 49.5393 113.849 50.3851L135.518 42.2275C135.268 41.5779 134.821 40.4548 134.546 39.7827L113.023 47.8884ZM112.865 47.4576C112.865 47.4576 112.865 47.4599 112.865 47.4622C112.865 47.4622 112.865 47.4599 112.865 47.4576ZM134.377 39.3767C134.377 39.3767 134.377 39.3767 134.377 39.3789C134.377 39.3789 134.377 39.3789 134.377 39.3767Z" fill="white"/>
<path d="M134.714 98.5348L133.278 97.8334C133.325 97.7364 133.397 97.5965 133.492 97.4184C138.695 87.5715 139.766 75.6429 139.748 67.3702C139.735 60.7372 139.004 54.4808 137.574 48.777C137.547 48.671 137.477 48.6191 137.439 48.5988C137.396 48.5763 137.326 48.5537 137.24 48.5808L115.375 56.0438C115.253 56.0866 115.178 56.2129 115.199 56.3483C115.679 59.3276 116.622 67.1311 115.021 75.2256L113.453 74.9144C115.003 67.0748 114.087 59.4967 113.62 56.6009C113.473 55.6942 113.994 54.8236 114.856 54.5304L136.722 47.0675C137.209 46.9006 137.746 46.9479 138.199 47.1938C138.657 47.4441 138.993 47.8794 139.121 48.3891C140.581 54.2192 141.329 60.6041 141.343 67.368C141.361 75.8233 140.258 88.0293 134.902 98.1649C134.818 98.325 134.753 98.4468 134.71 98.5348H134.714Z" fill="white"/>
<path d="M72.3331 195.439C69.7192 195.439 67.0804 195.317 64.4213 195.076C49.6983 193.731 36.7616 188.828 29.5647 184.687C28.9377 184.324 28.2995 183.93 27.6725 183.51C27.3139 183.271 27.1222 182.856 27.1718 182.43C27.2214 182.004 27.5011 181.643 27.9003 181.492L55.233 171.198C55.4563 171.115 55.6976 171.103 55.9299 171.164C60.082 172.319 64.6536 172.905 69.523 172.905C83.028 172.905 93.8064 168.99 101.556 161.266C109.253 153.595 113.157 142.521 113.157 128.355C113.157 114.189 109.253 103.109 101.556 95.4428C93.6508 87.5626 82.6108 83.5413 69.6244 83.8029C67.6127 83.8435 65.1205 84.1796 62.2133 84.8043V94.5745C62.2133 95.0121 61.972 95.4022 61.5818 95.5985C61.1939 95.7902 60.7383 95.7496 60.3932 95.4879L34.5401 75.943C34.2536 75.7287 34.089 75.3972 34.0867 75.0363C34.0867 74.6755 34.2491 74.3417 34.5378 74.1229L60.3932 54.5735C60.7383 54.3118 61.1939 54.269 61.5818 54.4629C61.972 54.6569 62.2133 55.0493 62.2133 55.4846V63.3671C66.0159 62.5935 67.8224 62.368 75.1095 61.9462C88.1004 61.1975 100.62 64.6549 112.332 72.2307C113.482 72.9749 114.639 73.7801 115.771 74.6236C118.067 76.3354 120.298 78.2412 122.402 80.2846C128.679 86.3831 133.456 93.51 136.6 101.469C139.75 109.451 141.347 118.499 141.347 128.358C141.347 138.216 139.75 147.262 136.6 155.244C133.456 163.201 128.681 170.328 122.404 176.424C120.183 178.584 118.006 180.65 115.801 182.161C107.738 187.687 98.8765 191.541 89.4649 193.614C83.9392 194.832 78.2016 195.443 72.3331 195.443V195.439ZM29.3121 182.667C29.664 182.888 30.0158 183.1 30.3631 183.303C45.5823 192.06 82.8363 202.814 114.896 180.84C116.996 179.401 119.118 177.385 121.288 175.274C127.402 169.335 132.053 162.398 135.111 154.653C138.187 146.858 139.748 138.011 139.748 128.353C139.748 118.696 138.187 109.846 135.111 102.051C132.051 94.3061 127.4 87.3664 121.286 81.4258C119.233 79.4298 117.055 77.5714 114.815 75.9001C113.712 75.0769 112.585 74.2943 111.464 73.5681C100.045 66.1818 87.8432 62.8078 75.2019 63.5363C67.6758 63.9715 66.0858 64.1948 61.9833 65.0406C61.6495 65.1105 61.3044 65.0271 61.0383 64.8105C60.7699 64.594 60.6165 64.2693 60.6165 63.9242V56.4048L35.9857 75.0273L60.6165 93.6498V84.4344C60.6165 83.9022 60.9932 83.4331 61.5119 83.318C64.6762 82.6211 67.3939 82.2445 69.5929 82.2016C83.0235 81.931 94.465 86.1147 102.686 94.3084C110.695 102.286 114.756 113.741 114.756 128.353C114.756 142.966 110.695 154.414 102.686 162.395C94.6251 170.429 83.4678 174.5 69.523 174.5C64.5679 174.5 59.9016 173.909 55.6547 172.743L29.3099 182.664L29.3121 182.667Z" fill="white"/>
<path d="M23.6976 180.125C23.4269 180.125 23.1631 180.028 22.9533 179.845C22.0241 179.035 20.204 177.263 19.4643 176.539C19.2139 176.293 19.0921 175.939 19.1418 175.592C19.1891 175.244 19.4011 174.937 19.7079 174.771C19.747 174.748 27.6783 171.769 43.5019 165.833C43.8425 165.704 44.2281 165.749 44.5326 165.954C45.976 166.931 47.5097 167.815 49.0907 168.584C49.4989 168.785 49.7493 169.207 49.729 169.662C49.7087 170.118 49.42 170.517 48.996 170.677L24.1058 180.05C23.975 180.1 23.8397 180.123 23.7044 180.123L23.6976 180.125ZM21.131 175.934C21.9159 176.697 23.0548 177.795 23.7946 178.458L47.4488 169.549C46.2038 168.902 44.9927 168.185 43.8334 167.414C41.6841 168.221 24.9132 174.511 21.1287 175.934H21.131Z" fill="white"/>
<path d="M16.565 173.029C16.2447 173.029 15.9357 172.894 15.7124 172.641C14.8148 171.606 13.9623 170.551 13.1707 169.5C12.9564 169.218 12.8865 168.841 12.9857 168.496C13.085 168.151 13.3443 167.869 13.6781 167.743L13.8157 167.691L36.0941 159.301C36.5384 159.134 37.0301 159.258 37.3459 159.615C37.8014 160.136 38.2706 160.643 38.7419 161.126C39.1998 161.592 39.6644 162.044 40.12 162.461C40.4154 162.736 40.5462 163.133 40.4695 163.525C40.3929 163.916 40.1267 164.231 39.7546 164.371L16.9664 172.955C16.8334 173.005 16.698 173.027 16.5627 173.027L16.565 173.029ZM14.8193 169.024C15.4193 169.804 16.053 170.58 16.7093 171.347L38.5051 163.137C38.2052 162.851 37.9029 162.551 37.603 162.247C37.1835 161.816 36.7662 161.369 36.3603 160.911L14.8193 169.024ZM14.4472 168.534C14.4472 168.534 14.4472 168.537 14.4494 168.539C14.4494 168.539 14.4494 168.537 14.4472 168.534Z" fill="white"/>
<path d="M11.1744 165.742C10.791 165.742 10.4212 165.546 10.2069 165.206C9.50773 164.087 8.84466 162.953 8.24248 161.832C8.08686 161.543 8.06205 161.2 8.17707 160.891C8.29209 160.582 8.53342 160.339 8.84015 160.221L9.3679 160.018L9.37241 160.023L31.0509 151.856C31.59 151.651 32.1967 151.886 32.4605 152.402C33.0289 153.503 33.6581 154.583 34.328 155.614C34.5174 155.905 34.5648 156.263 34.4565 156.592C34.3483 156.922 34.1024 157.181 33.7777 157.305L11.5714 165.668C11.4406 165.718 11.3053 165.74 11.1722 165.74L11.1744 165.742ZM11.0098 164.173C11.0098 164.173 11.0098 164.173 11.0075 164.173H11.0098ZM9.89791 161.532C10.358 162.366 10.8497 163.205 11.3639 164.04L32.6838 156.011C32.1696 155.196 31.6824 154.353 31.2291 153.498L9.90017 161.534L9.89791 161.532Z" fill="white"/>
<path d="M7.06652 157.941C6.62221 157.941 6.20497 157.682 6.02229 157.251C5.76292 156.649 4.91941 154.504 4.70967 153.956C4.59915 153.665 4.60817 153.354 4.73447 153.079C4.94197 152.632 5.39078 152.42 5.64113 152.332C5.80577 152.271 27.5993 144.064 27.9218 143.942C28.215 143.829 28.5466 143.847 28.8285 143.987C29.1127 144.129 29.3269 144.386 29.4149 144.693C29.7374 145.812 30.1028 146.917 30.4997 147.975C30.608 148.257 30.5989 148.568 30.4726 148.847C30.3463 149.125 30.1208 149.337 29.8366 149.443L7.46797 157.869C7.33491 157.919 7.19958 157.941 7.06652 157.941ZM7.49053 156.617C7.49053 156.617 7.49053 156.617 7.49053 156.619C7.49053 156.619 7.49053 156.619 7.49053 156.617ZM6.35382 153.771C6.61545 154.441 7.05524 155.555 7.32363 156.216L28.8465 148.11C28.5511 147.296 28.2737 146.459 28.0211 145.613C10.5601 152.188 7.06201 153.505 6.35382 153.771ZM29.0044 148.536C29.0044 148.536 29.0044 148.538 29.0044 148.541C29.0044 148.541 29.0044 148.538 29.0044 148.536Z" fill="white"/>
<path d="M4.54166 149.026C4.23493 149.026 3.93046 148.951 3.65756 148.802C3.19972 148.552 2.86367 148.117 2.73512 147.607C1.27815 141.777 0.529373 135.392 0.515841 128.628C0.497798 120.173 1.60067 107.967 6.95715 97.8312C7.0406 97.671 7.106 97.5493 7.14886 97.4613L8.58552 98.1627C8.53816 98.2597 8.46599 98.3995 8.37126 98.5777C3.16815 108.425 2.09685 120.353 2.11489 128.626C2.12842 135.259 2.85916 141.515 4.28906 147.219C4.31612 147.325 4.38604 147.377 4.42438 147.397C4.46723 147.422 4.53715 147.442 4.62285 147.415L26.4886 139.952C26.6104 139.909 26.6848 139.783 26.6622 139.648C26.1818 136.668 25.2391 128.865 26.8382 120.77L28.4056 121.082C26.8562 128.921 27.7719 136.499 28.2387 139.395C28.3853 140.302 27.8643 141.172 27.0028 141.466L5.13707 148.929C4.94311 148.994 4.74239 149.028 4.54166 149.028V149.026Z" fill="white"/>
</svg>
